# xmcd CD database file
#
# Track frame offsets:
#	150
#	15299
#	33568
#	48684
#	66741
#	77684
#	89467
#	101303
#	114634
#	125238
#
# Disc length: 1848 seconds
#
# Revision: 1
# Processed by: cddbd v1.4PL0 Copyright (c) Steve Scherf et al.
# Submitted via: Feurio! 1.66 - http://www.feurio.com
#
DISCID=8707360a
DTITLE=Tom T. Hall - A Soldier of Fortune
DYEAR=1980
DGENRE=Country
TTITLE0=Soldier of Fortune
TTITLE1=Me and Jimmie Rodgers
TTITLE2=We're All In This Thing Alone
TTITLE3=Back When Gas Was Thirty Cents a Gallon
TTITLE4=The World According to Raymond
TTITLE5=I'll Go Somewhere and Sing My Song Again
TTITLE6=Texas Never Fell In Love With Me
TTITLE7=The Six O'Clock News
TTITLE8=People As Crazy As Me
TTITLE9=Whiskey Castles
EXTD=(c)1980 RCA Victor/ (p)Roy Dea and Tom T. Hall\r\nRCA Catalog AHL1-3685 
EXTT0=
EXTT1=
EXTT2=
EXTT3=
EXTT4=
EXTT5=
EXTT6=
EXTT7=
EXTT8=
EXTT9=
PLAYORDER=
